<?xml version="1.0" encoding="UTF-8"?>
<svg xmlns="http://www.w3.org/2000/svg" xmlns:xlink="http://www.w3.org/1999/xlink" width="32px" height="32px" viewBox="0 0 32 32" version="1.1">
<g id="surface1">
<path style=" stroke:none;fill-rule:nonzero;fill:rgb(96.862745%,87.45098%,11.764706%);fill-opacity:1;" d="M 29.5 30 L 13 30 C 12.722656 30 12.5 29.777344 12.5 29.5 L 12.5 21 C 12.5 20.722656 12.722656 20.5 13 20.5 L 29.5 20.5 C 29.777344 20.5 30 20.722656 30 21 L 30 29.5 C 30 29.777344 29.777344 30 29.5 30 Z M 13.5 29 L 29 29 L 29 21.5 L 13.5 21.5 Z M 13.5 29 "/>
<path style=" stroke:none;fill-rule:nonzero;fill:rgb(96.862745%,87.45098%,11.764706%);fill-opacity:1;" d="M 15 23.5 C 14.933594 23.5 14.871094 23.484375 14.808594 23.460938 C 14.75 23.433594 14.695312 23.398438 14.644531 23.355469 C 14.550781 23.261719 14.496094 23.132812 14.496094 23 C 14.496094 22.867188 14.550781 22.738281 14.644531 22.644531 C 14.695312 22.601562 14.75 22.566406 14.808594 22.539062 C 14.929688 22.484375 15.070312 22.484375 15.191406 22.539062 C 15.25 22.566406 15.304688 22.601562 15.355469 22.644531 C 15.445312 22.742188 15.5 22.867188 15.5 23 C 15.5 23.132812 15.449219 23.261719 15.355469 23.355469 C 15.304688 23.398438 15.25 23.433594 15.191406 23.460938 C 15.128906 23.484375 15.066406 23.5 15 23.5 Z M 15 23.5 "/>
<path style=" stroke:none;fill-rule:nonzero;fill:rgb(96.862745%,87.45098%,11.764706%);fill-opacity:1;" d="M 17 23.5 C 16.933594 23.5 16.871094 23.484375 16.808594 23.460938 C 16.75 23.433594 16.695312 23.398438 16.644531 23.355469 C 16.550781 23.261719 16.5 23.132812 16.5 23 C 16.5 22.867188 16.554688 22.742188 16.644531 22.644531 C 16.695312 22.601562 16.75 22.566406 16.808594 22.539062 C 16.929688 22.484375 17.070312 22.484375 17.191406 22.539062 C 17.25 22.566406 17.304688 22.601562 17.355469 22.644531 C 17.449219 22.738281 17.503906 22.867188 17.503906 23 C 17.503906 23.132812 17.449219 23.261719 17.355469 23.355469 C 17.304688 23.398438 17.25 23.433594 17.191406 23.460938 C 17.128906 23.484375 17.066406 23.5 17 23.5 Z M 17 23.5 "/>
<path style=" stroke:none;fill-rule:nonzero;fill:rgb(96.862745%,87.45098%,11.764706%);fill-opacity:1;" d="M 19 23.5 C 18.933594 23.5 18.871094 23.484375 18.808594 23.460938 C 18.75 23.433594 18.695312 23.398438 18.644531 23.355469 C 18.550781 23.261719 18.496094 23.132812 18.496094 23 C 18.496094 22.867188 18.550781 22.738281 18.644531 22.644531 C 18.695312 22.601562 18.75 22.566406 18.808594 22.539062 C 18.933594 22.488281 19.066406 22.488281 19.191406 22.539062 C 19.25 22.566406 19.304688 22.601562 19.355469 22.644531 C 19.449219 22.738281 19.503906 22.867188 19.503906 23 C 19.503906 23.132812 19.449219 23.261719 19.355469 23.355469 C 19.308594 23.402344 19.25 23.4375 19.191406 23.460938 C 19.128906 23.484375 19.066406 23.5 19 23.5 Z M 19 23.5 "/>
<path style=" stroke:none;fill-rule:nonzero;fill:rgb(96.862745%,87.45098%,11.764706%);fill-opacity:1;" d="M 21 23.5 C 20.722656 23.5 20.5 23.277344 20.5 23 C 20.5 22.722656 20.722656 22.5 21 22.5 C 21.277344 22.5 21.5 22.722656 21.5 23 C 21.5 23.277344 21.277344 23.5 21 23.5 Z M 21 23.5 "/>
<path style=" stroke:none;fill-rule:nonzero;fill:rgb(96.862745%,87.45098%,11.764706%);fill-opacity:1;" d="M 23 23.5 C 22.867188 23.5 22.738281 23.449219 22.644531 23.355469 C 22.476562 23.1875 22.449219 22.921875 22.582031 22.722656 C 22.710938 22.523438 22.964844 22.445312 23.1875 22.539062 C 23.40625 22.628906 23.535156 22.859375 23.488281 23.09375 C 23.441406 23.328125 23.238281 23.5 23 23.5 Z M 23 23.5 "/>
<path style=" stroke:none;fill-rule:nonzero;fill:rgb(96.862745%,87.45098%,11.764706%);fill-opacity:1;" d="M 25 23.5 C 24.722656 23.5 24.5 23.277344 24.5 23 C 24.5 22.867188 24.554688 22.742188 24.644531 22.644531 L 24.71875 22.585938 L 24.808594 22.539062 C 24.835938 22.523438 24.867188 22.507812 24.898438 22.5 C 24.964844 22.484375 25.035156 22.484375 25.101562 22.5 C 25.132812 22.503906 25.160156 22.515625 25.191406 22.53125 L 25.28125 22.574219 L 25.355469 22.636719 C 25.507812 22.777344 25.554688 22.996094 25.476562 23.191406 C 25.398438 23.382812 25.207031 23.503906 25 23.5 Z M 25 23.5 "/>
<path style=" stroke:none;fill-rule:nonzero;fill:rgb(96.862745%,87.45098%,11.764706%);fill-opacity:1;" d="M 27 23.5 C 26.867188 23.5 26.742188 23.445312 26.644531 23.355469 C 26.550781 23.261719 26.5 23.132812 26.5 23 C 26.5 22.867188 26.554688 22.742188 26.644531 22.644531 C 26.761719 22.523438 26.933594 22.46875 27.101562 22.5 C 27.132812 22.503906 27.160156 22.515625 27.191406 22.53125 L 27.28125 22.574219 L 27.355469 22.636719 C 27.449219 22.730469 27.503906 22.855469 27.503906 22.988281 C 27.503906 23.125 27.449219 23.25 27.355469 23.34375 C 27.261719 23.441406 27.132812 23.5 27 23.5 Z M 27 23.5 "/>
<path style=" stroke:none;fill-rule:nonzero;fill:rgb(96.862745%,87.45098%,11.764706%);fill-opacity:1;" d="M 17 25 C 16.933594 25 16.871094 24.984375 16.808594 24.960938 C 16.75 24.933594 16.695312 24.898438 16.644531 24.855469 L 16.585938 24.78125 C 16.566406 24.753906 16.550781 24.722656 16.539062 24.691406 C 16.523438 24.664062 16.507812 24.632812 16.5 24.601562 C 16.496094 24.566406 16.496094 24.535156 16.5 24.5 C 16.496094 24.464844 16.496094 24.433594 16.5 24.398438 C 16.503906 24.367188 16.515625 24.339844 16.53125 24.308594 C 16.539062 24.277344 16.554688 24.246094 16.574219 24.21875 L 16.636719 24.144531 C 16.683594 24.101562 16.738281 24.066406 16.800781 24.039062 C 16.921875 23.988281 17.058594 23.988281 17.179688 24.039062 C 17.242188 24.0625 17.296875 24.097656 17.34375 24.144531 C 17.367188 24.167969 17.386719 24.195312 17.40625 24.21875 C 17.425781 24.246094 17.4375 24.277344 17.449219 24.308594 C 17.464844 24.339844 17.472656 24.367188 17.480469 24.398438 C 17.480469 24.433594 17.480469 24.464844 17.480469 24.5 C 17.484375 24.535156 17.484375 24.566406 17.480469 24.601562 C 17.472656 24.632812 17.464844 24.660156 17.449219 24.691406 C 17.4375 24.722656 17.425781 24.753906 17.40625 24.78125 C 17.386719 24.804688 17.367188 24.832031 17.34375 24.855469 C 17.296875 24.902344 17.242188 24.9375 17.179688 24.960938 C 17.121094 24.984375 17.0625 24.996094 17 25 Z M 17 25 "/>
<path style=" stroke:none;fill-rule:nonzero;fill:rgb(96.862745%,87.45098%,11.764706%);fill-opacity:1;" d="M 19 25 C 18.867188 25 18.742188 24.945312 18.644531 24.855469 C 18.625 24.832031 18.601562 24.804688 18.585938 24.78125 C 18.566406 24.753906 18.550781 24.722656 18.539062 24.691406 C 18.523438 24.664062 18.507812 24.632812 18.5 24.601562 C 18.496094 24.566406 18.496094 24.535156 18.5 24.5 C 18.496094 24.464844 18.496094 24.433594 18.5 24.398438 C 18.503906 24.367188 18.515625 24.339844 18.53125 24.308594 C 18.539062 24.277344 18.554688 24.246094 18.574219 24.21875 C 18.59375 24.195312 18.613281 24.167969 18.636719 24.144531 C 18.777344 24.003906 18.992188 23.960938 19.179688 24.039062 C 19.242188 24.066406 19.296875 24.101562 19.34375 24.144531 L 19.40625 24.21875 C 19.425781 24.246094 19.4375 24.277344 19.449219 24.308594 C 19.464844 24.339844 19.472656 24.367188 19.480469 24.398438 C 19.480469 24.433594 19.480469 24.464844 19.480469 24.5 C 19.484375 24.535156 19.484375 24.566406 19.480469 24.601562 C 19.472656 24.632812 19.464844 24.660156 19.449219 24.691406 C 19.4375 24.722656 19.425781 24.753906 19.40625 24.78125 L 19.34375 24.855469 C 19.296875 24.898438 19.242188 24.933594 19.179688 24.960938 C 19.121094 24.984375 19.0625 24.996094 19 25 Z M 19 25 "/>
<path style=" stroke:none;fill-rule:nonzero;fill:rgb(96.862745%,87.45098%,11.764706%);fill-opacity:1;" d="M 21 25 C 20.867188 25 20.742188 24.945312 20.644531 24.855469 C 20.550781 24.761719 20.496094 24.632812 20.496094 24.5 C 20.496094 24.367188 20.550781 24.238281 20.644531 24.144531 C 20.738281 24.050781 20.867188 23.996094 21 23.996094 C 21.132812 23.996094 21.261719 24.050781 21.355469 24.144531 C 21.449219 24.238281 21.503906 24.367188 21.503906 24.5 C 21.503906 24.632812 21.449219 24.761719 21.355469 24.855469 C 21.257812 24.945312 21.132812 25 21 25 Z M 21 25 "/>
<path style=" stroke:none;fill-rule:nonzero;fill:rgb(96.862745%,87.45098%,11.764706%);fill-opacity:1;" d="M 23 25 C 22.867188 25 22.742188 24.945312 22.644531 24.855469 L 22.585938 24.78125 C 22.566406 24.753906 22.550781 24.722656 22.539062 24.691406 C 22.523438 24.664062 22.507812 24.632812 22.5 24.601562 C 22.496094 24.566406 22.496094 24.535156 22.5 24.5 C 22.5 24.367188 22.554688 24.242188 22.644531 24.144531 C 22.761719 24.023438 22.933594 23.96875 23.101562 24 C 23.132812 24.003906 23.160156 24.015625 23.191406 24.03125 L 23.28125 24.074219 L 23.355469 24.136719 C 23.449219 24.234375 23.5 24.363281 23.5 24.5 C 23.503906 24.535156 23.503906 24.566406 23.5 24.601562 C 23.496094 24.632812 23.484375 24.660156 23.46875 24.691406 C 23.460938 24.722656 23.445312 24.753906 23.425781 24.78125 L 23.363281 24.855469 L 23.289062 24.914062 L 23.199219 24.960938 C 23.171875 24.972656 23.140625 24.984375 23.109375 24.988281 Z M 23 25 "/>
<path style=" stroke:none;fill-rule:nonzero;fill:rgb(96.862745%,87.45098%,11.764706%);fill-opacity:1;" d="M 25 25 C 24.867188 25 24.742188 24.945312 24.644531 24.855469 L 24.585938 24.78125 C 24.566406 24.753906 24.550781 24.722656 24.539062 24.691406 C 24.523438 24.664062 24.507812 24.632812 24.5 24.601562 C 24.496094 24.566406 24.496094 24.535156 24.5 24.5 C 24.5 24.222656 24.722656 24 25 24 C 25.277344 24 25.5 24.222656 25.5 24.5 C 25.503906 24.535156 25.503906 24.566406 25.5 24.601562 C 25.496094 24.632812 25.484375 24.660156 25.46875 24.691406 C 25.460938 24.722656 25.445312 24.753906 25.425781 24.78125 L 25.363281 24.855469 C 25.265625 24.949219 25.136719 25 25 25 Z M 25 25 "/>
<path style=" stroke:none;fill-rule:nonzero;fill:rgb(96.862745%,87.45098%,11.764706%);fill-opacity:1;" d="M 17 26.5 C 16.722656 26.5 16.5 26.277344 16.5 26 C 16.5 25.933594 16.515625 25.871094 16.539062 25.808594 C 16.5625 25.75 16.597656 25.691406 16.644531 25.644531 C 16.789062 25.503906 17.003906 25.460938 17.191406 25.539062 C 17.316406 25.585938 17.414062 25.683594 17.460938 25.808594 C 17.484375 25.871094 17.5 25.933594 17.5 26 C 17.503906 26.03125 17.503906 26.0625 17.5 26.09375 C 17.496094 26.128906 17.484375 26.160156 17.46875 26.191406 C 17.460938 26.222656 17.445312 26.253906 17.425781 26.28125 C 17.40625 26.304688 17.386719 26.332031 17.363281 26.355469 C 17.316406 26.398438 17.261719 26.433594 17.199219 26.460938 C 17.136719 26.488281 17.070312 26.503906 17 26.5 Z M 17 26.5 "/>
<path style=" stroke:none;fill-rule:nonzero;fill:rgb(96.862745%,87.45098%,11.764706%);fill-opacity:1;" d="M 19 26.5 L 18.898438 26.5 C 18.867188 26.496094 18.839844 26.484375 18.808594 26.46875 L 18.71875 26.425781 L 18.644531 26.363281 C 18.550781 26.265625 18.5 26.136719 18.5 26 C 18.5 25.933594 18.515625 25.871094 18.539062 25.808594 C 18.628906 25.585938 18.863281 25.453125 19.101562 25.5 C 19.132812 25.503906 19.160156 25.515625 19.191406 25.53125 L 19.28125 25.574219 L 19.355469 25.636719 C 19.402344 25.683594 19.4375 25.738281 19.460938 25.800781 C 19.488281 25.863281 19.5 25.929688 19.5 26 C 19.5 26.132812 19.445312 26.257812 19.355469 26.355469 L 19.28125 26.414062 L 19.191406 26.460938 C 19.160156 26.472656 19.132812 26.484375 19.101562 26.488281 Z M 19 26.5 "/>
<path style=" stroke:none;fill-rule:nonzero;fill:rgb(96.862745%,87.45098%,11.764706%);fill-opacity:1;" d="M 21 26.5 C 20.933594 26.5 20.871094 26.488281 20.808594 26.460938 C 20.75 26.433594 20.695312 26.398438 20.644531 26.355469 C 20.554688 26.257812 20.5 26.132812 20.5 26 C 20.5 25.933594 20.515625 25.871094 20.539062 25.808594 C 20.5625 25.75 20.597656 25.691406 20.644531 25.644531 C 20.695312 25.601562 20.75 25.566406 20.808594 25.539062 C 20.933594 25.488281 21.066406 25.488281 21.191406 25.539062 C 21.316406 25.585938 21.414062 25.683594 21.460938 25.808594 C 21.488281 25.871094 21.5 25.933594 21.5 26 C 21.503906 26.03125 21.503906 26.0625 21.5 26.09375 C 21.496094 26.128906 21.484375 26.160156 21.46875 26.191406 C 21.460938 26.222656 21.445312 26.253906 21.425781 26.28125 C 21.40625 26.304688 21.386719 26.332031 21.363281 26.355469 C 21.316406 26.398438 21.261719 26.433594 21.199219 26.460938 C 21.136719 26.488281 21.070312 26.503906 21 26.5 Z M 21 26.5 "/>
<path style=" stroke:none;fill-rule:nonzero;fill:rgb(96.862745%,87.45098%,11.764706%);fill-opacity:1;" d="M 23 26.5 L 22.898438 26.5 C 22.867188 26.496094 22.839844 26.484375 22.808594 26.46875 L 22.71875 26.425781 L 22.644531 26.363281 C 22.550781 26.265625 22.5 26.136719 22.5 26 C 22.5 25.933594 22.515625 25.871094 22.539062 25.808594 C 22.628906 25.585938 22.863281 25.453125 23.101562 25.5 C 23.132812 25.503906 23.160156 25.515625 23.191406 25.53125 L 23.28125 25.574219 L 23.355469 25.636719 C 23.402344 25.683594 23.4375 25.738281 23.460938 25.800781 C 23.488281 25.863281 23.5 25.929688 23.5 26 C 23.5 26.132812 23.445312 26.257812 23.355469 26.355469 L 23.28125 26.414062 L 23.191406 26.460938 C 23.160156 26.472656 23.132812 26.484375 23.101562 26.488281 Z M 23 26.5 "/>
<path style=" stroke:none;fill-rule:nonzero;fill:rgb(96.862745%,87.45098%,11.764706%);fill-opacity:1;" d="M 15 28 C 14.867188 28 14.742188 27.945312 14.644531 27.855469 C 14.601562 27.804688 14.566406 27.75 14.539062 27.691406 C 14.515625 27.628906 14.5 27.566406 14.5 27.5 C 14.5 27.367188 14.554688 27.242188 14.644531 27.144531 C 14.789062 27.003906 15.003906 26.960938 15.191406 27.039062 C 15.25 27.066406 15.304688 27.101562 15.355469 27.144531 L 15.414062 27.226562 C 15.433594 27.25 15.449219 27.277344 15.460938 27.308594 C 15.472656 27.339844 15.484375 27.367188 15.488281 27.398438 C 15.492188 27.433594 15.492188 27.464844 15.488281 27.5 C 15.488281 27.566406 15.476562 27.628906 15.449219 27.691406 C 15.425781 27.75 15.390625 27.804688 15.34375 27.855469 C 15.25 27.945312 15.128906 27.996094 15 28 Z M 15 28 "/>
<path style=" stroke:none;fill-rule:nonzero;fill:rgb(96.862745%,87.45098%,11.764706%);fill-opacity:1;" d="M 25 28 L 24.898438 28 C 24.867188 27.996094 24.839844 27.984375 24.808594 27.96875 C 24.777344 27.960938 24.75 27.945312 24.726562 27.925781 C 24.695312 27.90625 24.667969 27.886719 24.644531 27.863281 C 24.597656 27.816406 24.5625 27.761719 24.539062 27.699219 C 24.511719 27.636719 24.5 27.570312 24.5 27.5 C 24.5 27.367188 24.550781 27.238281 24.644531 27.144531 C 24.789062 27.003906 25.003906 26.960938 25.191406 27.039062 C 25.25 27.0625 25.308594 27.097656 25.355469 27.144531 C 25.378906 27.167969 25.398438 27.195312 25.414062 27.226562 C 25.433594 27.25 25.449219 27.277344 25.460938 27.308594 C 25.472656 27.339844 25.484375 27.367188 25.488281 27.398438 C 25.492188 27.433594 25.492188 27.464844 25.488281 27.5 C 25.492188 27.566406 25.476562 27.628906 25.449219 27.691406 C 25.40625 27.816406 25.304688 27.914062 25.179688 27.960938 C 25.121094 27.984375 25.0625 27.996094 25 28 Z M 25 28 "/>
<path style=" stroke:none;fill-rule:nonzero;fill:rgb(96.862745%,87.45098%,11.764706%);fill-opacity:1;" d="M 27 28 C 26.933594 28 26.871094 27.984375 26.808594 27.960938 C 26.683594 27.914062 26.585938 27.816406 26.539062 27.691406 C 26.515625 27.628906 26.5 27.566406 26.5 27.5 C 26.496094 27.464844 26.496094 27.433594 26.5 27.398438 C 26.503906 27.367188 26.515625 27.339844 26.53125 27.308594 C 26.539062 27.277344 26.554688 27.25 26.574219 27.226562 C 26.59375 27.195312 26.613281 27.167969 26.636719 27.144531 C 26.683594 27.101562 26.738281 27.066406 26.800781 27.039062 C 26.984375 26.960938 27.203125 27.003906 27.34375 27.144531 C 27.441406 27.238281 27.496094 27.367188 27.5 27.5 C 27.5 27.566406 27.484375 27.628906 27.460938 27.691406 C 27.433594 27.75 27.398438 27.804688 27.355469 27.855469 C 27.332031 27.878906 27.304688 27.898438 27.273438 27.914062 C 27.25 27.933594 27.222656 27.949219 27.191406 27.960938 C 27.160156 27.972656 27.132812 27.984375 27.101562 27.988281 Z M 27 28 "/>
<path style=" stroke:none;fill-rule:nonzero;fill:rgb(96.862745%,87.45098%,11.764706%);fill-opacity:1;" d="M 27 26.5 L 25 26.5 C 24.722656 26.5 24.5 26.277344 24.5 26 C 24.5 25.722656 24.722656 25.5 25 25.5 L 26.5 25.5 L 26.5 24.5 C 26.5 24.222656 26.722656 24 27 24 C 27.277344 24 27.5 24.222656 27.5 24.5 L 27.5 26 C 27.5 26.277344 27.277344 26.5 27 26.5 Z M 27 26.5 "/>
<path style=" stroke:none;fill-rule:nonzero;fill:rgb(96.862745%,87.45098%,11.764706%);fill-opacity:1;" d="M 23 28 L 17 28 C 16.722656 28 16.5 27.777344 16.5 27.5 C 16.5 27.222656 16.722656 27 17 27 L 23 27 C 23.277344 27 23.5 27.222656 23.5 27.5 C 23.5 27.777344 23.277344 28 23 28 Z M 23 28 "/>
<path style=" stroke:none;fill-rule:nonzero;fill:rgb(96.862745%,87.45098%,11.764706%);fill-opacity:1;" d="M 15 26.5 C 14.722656 26.5 14.5 26.277344 14.5 26 L 14.5 24.5 C 14.5 24.222656 14.722656 24 15 24 C 15.277344 24 15.5 24.222656 15.5 24.5 L 15.5 26 C 15.5 26.277344 15.277344 26.5 15 26.5 Z M 15 26.5 "/>
<path style=" stroke:none;fill-rule:nonzero;fill:rgb(96.862745%,87.45098%,11.764706%);fill-opacity:1;" d="M 27 21.5 L 25 21.5 C 24.722656 21.5 24.5 21.277344 24.5 21 L 24.5 20 C 24.5 19.171875 25.171875 18.5 26 18.5 C 26.828125 18.5 27.5 19.171875 27.5 20 L 27.5 21 C 27.5 21.277344 27.277344 21.5 27 21.5 Z M 25.5 20.5 L 26.5 20.5 L 26.5 20 C 26.5 19.722656 26.277344 19.5 26 19.5 C 25.722656 19.5 25.5 19.722656 25.5 20 Z M 25.5 20.5 "/>
<path style=" stroke:none;fill-rule:nonzero;fill:rgb(96.862745%,87.45098%,11.764706%);fill-opacity:1;" d="M 26 19.5 C 25.722656 19.5 25.5 19.277344 25.5 19 L 25.5 18.5 C 25.5 16.84375 26.84375 15.5 28.5 15.5 C 28.777344 15.5 29 15.722656 29 16 C 29 16.277344 28.777344 16.5 28.5 16.5 C 27.394531 16.5 26.5 17.394531 26.5 18.5 L 26.5 19 C 26.5 19.277344 26.277344 19.5 26 19.5 Z M 26 19.5 "/>
<path style=" stroke:none;fill-rule:nonzero;fill:rgb(60%,60%,60%);fill-opacity:1;" d="M 10.890625 27.550781 C 9.898438 27.546875 9 26.957031 8.605469 26.050781 L 2.28125 11.921875 C 1.714844 10.660156 2.277344 9.179688 3.539062 8.613281 L 14 3.933594 C 14.164062 3.847656 14.363281 3.859375 14.515625 3.964844 C 14.671875 4.070312 14.75 4.253906 14.730469 4.4375 C 14.707031 4.621094 14.582031 4.777344 14.410156 4.84375 L 3.949219 9.523438 C 3.582031 9.6875 3.292969 9.988281 3.152344 10.367188 C 3.007812 10.742188 3.023438 11.160156 3.191406 11.523438 L 9.5 25.660156 C 9.753906 26.226562 10.332031 26.582031 10.953125 26.546875 C 11.230469 26.527344 11.46875 26.738281 11.484375 27.015625 C 11.5 27.292969 11.292969 27.527344 11.015625 27.546875 Z M 10.890625 27.550781 "/>
<path style=" stroke:none;fill-rule:nonzero;fill:rgb(40%,40%,40%);fill-opacity:1;" d="M 10.058594 15.769531 C 10 15.769531 9.9375 15.757812 9.878906 15.734375 L 6.925781 14.605469 C 6.800781 14.5625 6.703125 14.464844 6.648438 14.34375 C 6.597656 14.222656 6.597656 14.082031 6.648438 13.960938 L 8.078125 10.226562 C 8.132812 10.046875 8.285156 9.910156 8.46875 9.878906 C 8.652344 9.84375 8.839844 9.917969 8.957031 10.066406 C 9.070312 10.214844 9.089844 10.414062 9.011719 10.585938 L 7.75 13.851562 L 10.25 14.804688 C 10.472656 14.894531 10.601562 15.125 10.558594 15.363281 C 10.515625 15.597656 10.308594 15.769531 10.070312 15.769531 Z M 10.058594 15.769531 "/>
<path style=" stroke:none;fill-rule:nonzero;fill:rgb(40%,40%,40%);fill-opacity:1;" d="M 11.828125 11.140625 C 11.582031 11.144531 11.367188 10.960938 11.328125 10.714844 L 10.90625 7.910156 C 10.863281 7.632812 11.054688 7.375 11.328125 7.335938 C 11.605469 7.292969 11.863281 7.484375 11.90625 7.761719 L 12.328125 10.566406 C 12.351562 10.695312 12.316406 10.832031 12.238281 10.9375 C 12.160156 11.042969 12.042969 11.117188 11.910156 11.136719 Z M 11.828125 11.140625 "/>
<path style=" stroke:none;fill-rule:nonzero;fill:rgb(60%,60%,60%);fill-opacity:1;" d="M 11 21.78125 C 10.9375 21.78125 10.878906 21.769531 10.820312 21.746094 L 9.859375 21.378906 C 8.574219 20.882812 7.933594 19.441406 8.425781 18.15625 L 13.953125 3.65625 C 14.449219 2.363281 15.894531 1.71875 17.183594 2.214844 L 28.394531 6.5 C 29.679688 6.992188 30.328125 8.433594 29.839844 9.71875 L 28.109375 14.21875 C 27.996094 14.457031 27.722656 14.566406 27.476562 14.472656 C 27.234375 14.378906 27.105469 14.109375 27.179688 13.859375 L 28.90625 9.359375 C 29.199219 8.585938 28.808594 7.71875 28.035156 7.425781 L 16.824219 3.164062 C 16.453125 3.023438 16.039062 3.035156 15.675781 3.195312 C 15.308594 3.359375 15.027344 3.660156 14.886719 4.035156 L 9.355469 18.5 C 9.058594 19.273438 9.449219 20.140625 10.21875 20.433594 L 11.179688 20.800781 C 11.4375 20.898438 11.5625 21.1875 11.464844 21.445312 C 11.394531 21.644531 11.210938 21.777344 11 21.78125 Z M 11 21.78125 "/>
<path style=" stroke:none;fill-rule:nonzero;fill:rgb(40%,40%,40%);fill-opacity:1;" d="M 15.941406 14.96875 C 15.742188 14.972656 15.5625 14.855469 15.480469 14.675781 L 13.851562 11.023438 C 13.792969 10.902344 13.789062 10.765625 13.835938 10.640625 C 13.882812 10.515625 13.976562 10.414062 14.101562 10.359375 L 17.753906 8.730469 C 18.007812 8.617188 18.304688 8.730469 18.414062 8.984375 C 18.527344 9.238281 18.414062 9.53125 18.160156 9.644531 L 14.964844 11.070312 L 16.394531 14.265625 C 16.449219 14.386719 16.453125 14.523438 16.40625 14.648438 C 16.355469 14.773438 16.261719 14.871094 16.140625 14.925781 C 16.078125 14.953125 16.007812 14.96875 15.941406 14.96875 Z M 15.941406 14.96875 "/>
<path style=" stroke:none;fill-rule:nonzero;fill:rgb(40%,40%,40%);fill-opacity:1;" d="M 20.851562 16.851562 C 20.609375 16.855469 20.402344 16.6875 20.351562 16.453125 C 20.300781 16.21875 20.425781 15.984375 20.644531 15.890625 L 23.839844 14.464844 L 22.410156 11.269531 C 22.296875 11.015625 22.410156 10.722656 22.664062 10.609375 C 22.914062 10.496094 23.210938 10.605469 23.324219 10.859375 L 24.953125 14.5 C 25.066406 14.75 24.957031 15.046875 24.703125 15.160156 L 21.050781 16.804688 C 20.988281 16.832031 20.917969 16.847656 20.851562 16.851562 Z M 20.851562 16.851562 "/>
<path style=" stroke:none;fill-rule:nonzero;fill:rgb(40%,40%,40%);fill-opacity:1;" d="M 16.566406 17 C 16.457031 17 16.351562 16.964844 16.265625 16.898438 C 16.046875 16.734375 16 16.425781 16.160156 16.203125 L 21.40625 9.105469 C 21.503906 8.945312 21.6875 8.855469 21.875 8.875 C 22.058594 8.890625 22.222656 9.011719 22.292969 9.183594 C 22.363281 9.359375 22.328125 9.558594 22.203125 9.699219 L 16.964844 16.796875 C 16.871094 16.921875 16.722656 17 16.566406 17 Z M 16.566406 17 "/>
</g>
</svg>
